# xmcd
#
# Track frame offsets:
#  150
#  16046
#  30986
#  47823
#  64758
#  83011
#  97740
#  113273
#  124353
#  134172
#  149207
#
# Disc length: 2116 seconds
#
# Revision: 0
# Processed by: cddbd v1.5.2PL0 Copyright (c) Steve Scherf et al.
# Submitted via: Collectorz.com_Music_Collector 6.11
#
DISCID=8e08420b
DTITLE=Carlton Moody - Songcrafters
DYEAR=1900
DGENRE=Country
TTITLE0=Chevy Fly
TTITLE1=Scratchy Records
TTITLE2=Front Row Seats
TTITLE3=Bump In The Road
TTITLE4=One Way Back To You
TTITLE5=Closer To You
TTITLE6=Drive In
TTITLE7=I'm Not Letting Go
TTITLE8=Rub A Dub
TTITLE9=Don't Run Away
TTITLE10=Butter Creek
EXTD=
EXTT0=
EXTT1=
EXTT2=
EXTT3=
EXTT4=
EXTT5=
EXTT6=
EXTT7=
EXTT8=
EXTT9=
EXTT10=
PLAYORDER=
